<svg id="Layer_1" data-name="Layer 1" xmlns="http://www.w3.org/2000/svg" viewBox="0 0 689 82"><defs><style>.cls-1{fill:#ececec;}.cls-2{fill:#b50717;}</style></defs><title>Hypertube-Logo</title><path class="cls-1" d="M49.1348,47.99h-30.59V80.88H1.0649V.6094h17.48v31.855h30.59V.6094h17.48V80.88h-17.48Z"/><path class="cls-1" d="M158.9585,80.88V.6094h37.95a25.7453,25.7453,0,0,1,10.12,1.8974A22.452,22.452,0,0,1,214.6758,7.74a22.9663,22.9663,0,0,1,4.8877,8.1075,30.4084,30.4084,0,0,1,1.7251,10.4072A30.2643,30.2643,0,0,1,219.5635,36.72a23.0177,23.0177,0,0,1-4.8877,8.05,22.43,22.43,0,0,1-7.6475,5.2325,25.7363,25.7363,0,0,1-10.12,1.8974h-20.47V80.88Zm17.48-44.16h18.4a8.8755,8.8755,0,0,0,6.1528-2.0127,7.5452,7.5452,0,0,0,2.2422-5.9223V23.7241a7.55,7.55,0,0,0-2.2422-5.9219,8.8851,8.8851,0,0,0-6.1528-2.0126h-18.4Z"/><path class="cls-1" d="M234.3975,80.88V.6094h54.625V16.1343H251.8774v16.33h31.855V47.99h-31.855V65.3545h37.1451V80.88Z"/><path class="cls-1" d="M321.6816,80.88h-17.48V.6094h38.0649a26.157,26.157,0,0,1,10.0049,1.84,21.4509,21.4509,0,0,1,7.6474,5.2329,23.64,23.64,0,0,1,4.8877,8.1075,30.2652,30.2652,0,0,1,1.7256,10.4648,27.3816,27.3816,0,0,1-3.623,14.26A20.7377,20.7377,0,0,1,351.9268,49.37l15.7548,31.51H348.2471l-14.03-29.44H321.6816Zm18.4-44.16a8.8743,8.8743,0,0,0,6.1524-2.0127,7.5435,7.5435,0,0,0,2.2422-5.9223V23.7241a7.5483,7.5483,0,0,0-2.2422-5.9219A8.8838,8.8838,0,0,0,340.082,15.79h-18.4V36.72Z"/><path class="cls-1" d="M412.418,16.1343V80.88H394.9375V16.1343H373.2031V.6094h60.9492V16.1343Z"/><path class="cls-1" d="M462.6729.6094V49.83q0,8.5122,3.3349,12.707,3.3341,4.2,11.1553,4.1983,7.8193,0,11.1543-4.1983,3.3354-4.1967,3.3349-12.707V.6094h17.0206V47.99a62.2972,62.2972,0,0,1-1.668,15.3526,24.8362,24.8362,0,0,1-5.4619,10.6943,22.5747,22.5747,0,0,1-9.7754,6.21,53.9964,53.9964,0,0,1-29.21,0,22.5537,22.5537,0,0,1-9.7744-6.21A24.8156,24.8156,0,0,1,447.32,63.3428a62.2491,62.2491,0,0,1-1.668-15.3526V.6094Z"/><path class="cls-1" d="M530.8682,82.1445q-5.1753,0-7.6475-2.5869a9.1757,9.1757,0,0,1-2.4727-6.6123V70.6445a9.1789,9.1789,0,0,1,2.4727-6.6123q2.4713-2.5869,7.6475-2.5869t7.6474,2.5869a9.1869,9.1869,0,0,1,2.4727,6.6123v2.3008a9.1837,9.1837,0,0,1-2.4727,6.6123Q536.0415,82.1445,530.8682,82.1445Z"/><path class="cls-2" d="M557.5479.6094h38.9843q10.0048,0,15.583,5.6352t5.5772,14.95a22.3545,22.3545,0,0,1-1.207,7.8194,15.0645,15.0645,0,0,1-3.2208,5.29,12.3514,12.3514,0,0,1-4.7148,3.0478,19.0081,19.0081,0,0,1-5.8076,1.0928v.6895A19.411,19.411,0,0,1,608.78,40.17a17.2,17.2,0,0,1,5.8066,3.2774,18.1166,18.1166,0,0,1,4.4277,5.8076,19.4172,19.4172,0,0,1,1.7833,8.74,25.4713,25.4713,0,0,1-1.5528,8.9121,22.7278,22.7278,0,0,1-4.3125,7.3028,20.1172,20.1172,0,0,1-6.5556,4.8877,19.2116,19.2116,0,0,1-8.2793,1.7822h-42.55ZM575.0273,33.5h17.3653a7.3006,7.3006,0,0,0,5.4053-1.9556,7.3065,7.3065,0,0,0,1.9541-5.4052v-3.45a7.3074,7.3074,0,0,0-1.9541-5.4043,7.31,7.31,0,0,0-5.4053-1.9551H575.0273Zm0,32.66h20.125a7.6448,7.6448,0,0,0,5.4629-1.8975,7.0018,7.0018,0,0,0,2.0118-5.3477v-3.91a7.0019,7.0019,0,0,0-2.0118-5.3477,7.6447,7.6447,0,0,0-5.4629-1.8974h-20.125Z"/><path class="cls-2" d="M634.252,80.88V.6094h54.625V16.1343H651.7314v16.33h31.8555V47.99H651.7314V65.3545H688.877V80.88Z"/><path class="cls-1" d="M124.7188,40.45,147.8657.526V.5H124.7072L101.5533,40.45h23.1655Z"/><path class="cls-2" d="M76,.5043H99.157L124.71,40.45,99.157,80.3959H76L101.5525,40.45,76,.5043"/></svg>