<?xml version="1.0" encoding="UTF-8" standalone="no"?>
<svg
   xmlns:dc="http://purl.org/dc/elements/1.1/"
   xmlns:cc="http://creativecommons.org/ns#"
   xmlns:rdf="http://www.w3.org/1999/02/22-rdf-syntax-ns#"
   xmlns:svg="http://www.w3.org/2000/svg"
   xmlns="http://www.w3.org/2000/svg"
   viewBox="0 0 682.66669 682.66669"
   height="682.66669"
   width="682.66669"
   xml:space="preserve"
   id="svg2"
   version="1.1"><metadata
     id="metadata8"><rdf:RDF><cc:Work
         rdf:about=""><dc:format>image/svg+xml</dc:format><dc:type
           rdf:resource="http://purl.org/dc/dcmitype/StillImage" /></cc:Work></rdf:RDF></metadata><defs
     id="defs6"><clipPath
       id="clipPath18"
       clipPathUnits="userSpaceOnUse"><path
         id="path16"
         d="M 0,512 H 512 V 0 H 0 Z" /></clipPath></defs><g
     transform="matrix(1.3333333,0,0,-1.3333333,0,682.66667)"
     id="g10"><g
       id="g12"><g
         clip-path="url(#clipPath18)"
         id="g14"><g
           transform="translate(255.9995,512)"
           id="g20"><path
             id="path22"
             style="fill:#ececec;fill-opacity:1;fill-rule:nonzero;stroke:none"
             d="M 0,0 H 0.001 C 141.385,0 256,-114.615 256,-256 v 0 C 256,-397.385 141.385,-512 0.001,-512 H 0 c -141.385,0 -256,114.615 -256,256 v 0 C -256,-114.615 -141.384,0 0,0" /></g><g
           transform="translate(318.5596,239.9893)"
           id="g24"><path
             id="path26"
             style="fill:#1d1d1d;fill-opacity:1;fill-rule:nonzero;stroke:none"
             d="m 0,0 96.961,167.242 v 0.109 H -0.049 L -97.039,0 h 3.087 z" /></g><g
           transform="translate(114.479,407.3218)"
           id="g28"><path
             id="path30"
             style="fill:#b50717;fill-opacity:1;fill-rule:nonzero;stroke:none"
             d="M 0,0 H 97.003 L 204.042,-167.331 97.003,-334.662 H 0 l 107.039,167.331 z" /></g></g></g></g></svg>
