<?xml version="1.0" encoding="UTF-8"?>
<svg xmlns="http://www.w3.org/2000/svg" xmlns:xlink="http://www.w3.org/1999/xlink" width="128pt" height="128pt" viewBox="0 0 128 128" version="1.1">
<g id="surface819767">
<path style=" stroke:none;fill-rule:nonzero;fill:rgb(100%,100%,100%);fill-opacity:1;" d="M 76 12 C 53.953125 12 36 29.953125 36 52 C 36 61.578125 39.359375 70.359375 45 77.25 L 13.125 109.125 L 18.875 114.875 L 50.75 83 C 57.640625 88.640625 66.421875 92 76 92 C 98.046875 92 116 74.046875 116 52 C 116 29.953125 98.046875 12 76 12 Z M 76 20 C 93.71875 20 108 34.28125 108 52 C 108 69.71875 93.71875 84 76 84 C 58.28125 84 44 69.71875 44 52 C 44 34.28125 58.28125 20 76 20 Z M 76 20 "/>
</g>
</svg>
